HIERARCHY
ROOT Hips
{
	OFFSET -0.001795 -0.223333 0.028219
	CHANNELS 6 Xposition Yposition Zposition Zrotation Yrotation Xrotation 
	JOINT LeftUpLeg
	{
		OFFSET 0.069520 -0.091406 -0.006815
		CHANNELS 3 Zrotation Yrotation Xrotation
		JOINT LeftLeg
		{
			OFFSET 0.034277 -0.375199 -0.004496
			CHANNELS 3 Zrotation Yrotation Xrotation
			JOINT LeftFoot
			{
				OFFSET -0.013596 -0.397961 -0.043693
				CHANNELS 3 Zrotation Yrotation Xrotation
				JOINT LeftToe
				{
					OFFSET 0.026358 -0.055791 0.119288
					CHANNELS 3 Zrotation Yrotation Xrotation
					End Site
					{
						OFFSET 0.000000 0.000000 0.000000
					}
				}
			}
		}
	}
	JOINT RightUpLeg
	{
		OFFSET -0.067670 -0.090522 -0.004320
		CHANNELS 3 Zrotation Yrotation Xrotation
		JOINT RightLeg
		{
			OFFSET -0.038290 -0.382569 -0.008850
			CHANNELS 3 Zrotation Yrotation Xrotation
			JOINT RightFoot
			{
				OFFSET 0.015774 -0.398415 -0.042312
				CHANNELS 3 Zrotation Yrotation Xrotation
				JOINT RightToe
				{
					OFFSET -0.025372 -0.048144 0.123348
					CHANNELS 3 Zrotation Yrotation Xrotation
					End Site
					{
						OFFSET 0.000000 0.000000 0.000000
					}
				}
			}
		}
	}
	JOINT Spine
	{
		OFFSET -0.002533 0.108963 -0.026696
		CHANNELS 3 Zrotation Yrotation Xrotation
		JOINT Spine1
		{
			OFFSET 0.005487 0.135180 0.001092
			CHANNELS 3 Zrotation Yrotation Xrotation
			JOINT Spine2
			{
				OFFSET 0.001457 0.052922 0.025425
				CHANNELS 3 Zrotation Yrotation Xrotation
				JOINT Neck
				{
					OFFSET -0.002778 0.213870 -0.042857
					CHANNELS 3 Zrotation Yrotation Xrotation
					JOINT Head
					{
						OFFSET 0.005152 0.064970 0.051349
						CHANNELS 3 Zrotation Yrotation Xrotation
						End Site
						{
							OFFSET 0.000000 0.000000 0.000000
						}
					}
				}
				JOINT LeftShoulder
				{
					OFFSET 0.078845 0.121749 -0.034090
					CHANNELS 3 Zrotation Yrotation Xrotation
					JOINT LeftArm
					{
						OFFSET 0.090977 0.030469 -0.008868
						CHANNELS 3 Zrotation Yrotation Xrotation
						JOINT LeftForeArm
						{
							OFFSET 0.259612 -0.012772 -0.027456
							CHANNELS 3 Zrotation Yrotation Xrotation
							JOINT LeftHand
							{
								OFFSET 0.249234 0.008986 -0.001171
								CHANNELS 3 Zrotation Yrotation Xrotation
								End Site
								{
									OFFSET 0.000000 0.000000 0.000000
								}
							}
						}
					}
				}
				JOINT RightShoulder
				{
					OFFSET -0.081759 0.118833 -0.038615
					CHANNELS 3 Zrotation Yrotation Xrotation
					JOINT RightArm
					{
						OFFSET -0.096012 0.032551 -0.009143
						CHANNELS 3 Zrotation Yrotation Xrotation
						JOINT RightForeArm
						{
							OFFSET -0.253742 -0.013329 -0.021401
							CHANNELS 3 Zrotation Yrotation Xrotation
							JOINT RightHand
							{
								OFFSET -0.255298 0.007772 -0.005559
								CHANNELS 3 Zrotation Yrotation Xrotation
								End Site
								{
									OFFSET 0.000000 0.000000 0.000000
								}
							}
						}
					}
				}
			}
		}
	}
}
MOTION
Frames: 10
Frame Time: 0.050000
0.000000 0.956403 0.000000 -9.116212 0.425242 12.482487 12.223350 -0.192037 -17.373606 -0.866824 0.172906 -3.134711 -7.704092 -6.519326 15.806097 0.000000 0.000000 0.000000 0.687591 0.307599 -3.209532 0.891095 -0.008046 2.547809 -1.419801 -8.094639 13.666035 0.000000 0.000000 0.000000 -4.447939 0.197978 6.515632 -4.471141 2.121774 4.073244 -1.549562 8.304294 3.585158 0.537242 1.570549 -15.232833 0.000000 0.000000 0.000000 -26.918744 -18.211762 5.318253 -21.717540 -14.633260 0.351653 11.703501 -23.846545 -1.759097 0.000000 0.000000 0.000000 29.835920 13.326995 10.396585 41.374794 13.199319 -0.916780 -12.805480 19.016502 -0.970090 0.000000 0.000000 0.000000 
0.010184 0.954891 0.003169 -10.664470 -3.049339 12.803713 13.110881 0.070230 -15.438707 -0.680276 0.211379 -4.803749 -5.750848 -4.467418 14.561214 0.000000 0.000000 0.000000 1.368539 0.454292 -4.816372 1.831795 -0.060507 4.082734 -1.934156 -9.228167 12.419470 0.000000 0.000000 0.000000 -5.056624 0.287292 7.285095 -4.818727 2.308739 2.220076 -1.288740 9.748780 4.434744 -1.392059 2.731327 -15.958606 0.000000 0.000000 0.000000 -27.937975 -17.593365 5.063379 -20.493768 -14.703798 0.261820 12.557271 -24.817244 -2.004483 0.000000 0.000000 0.000000 31.354078 13.297961 10.598400 41.190025 15.143855 -0.450959 -13.862361 18.065139 -1.023528 0.000000 0.000000 0.000000 
0.018881 0.954398 0.005243 -10.534570 -4.918332 12.514075 13.208747 0.184346 -15.031495 -2.291854 0.319461 -3.857300 -4.776574 -3.426428 13.837380 0.000000 0.000000 0.000000 1.323695 0.293561 -3.479515 2.084562 -0.124141 2.395646 -1.547551 -8.897776 12.966297 0.000000 0.000000 0.000000 -5.251885 0.316475 7.095788 -4.531464 2.231708 3.005689 -2.459750 10.202372 4.422803 0.365614 1.447193 -13.384826 0.000000 0.000000 0.000000 -25.873173 -19.516548 6.406016 -20.578334 -16.522406 0.451632 12.655932 -22.311182 -1.809188 0.000000 0.000000 0.000000 30.724911 15.678127 12.105620 43.195812 13.257113 -0.915362 -16.079080 22.336150 -1.711481 0.000000 0.000000 0.000000 
0.026181 0.953606 0.006324 -11.792111 -7.447939 13.689446 14.091736 0.436887 -15.072393 -2.392972 0.345849 -4.262822 -3.334575 -1.664779 13.239646 0.000000 0.000000 0.000000 1.462589 0.275307 -3.532378 3.658568 -0.272366 1.663966 -3.353676 -12.711832 14.189571 0.000000 0.000000 0.000000 -5.372324 0.360422 6.511462 -5.221155 2.534749 1.617726 -1.837401 11.219976 5.777531 0.594198 1.415485 -14.827186 0.000000 0.000000 0.000000 -24.914424 -20.638469 7.436802 -21.007083 -16.660946 0.333348 14.640352 -21.474878 -2.095517 0.000000 0.000000 0.000000 30.292730 15.741226 11.851645 45.293370 13.772828 -0.644492 -16.996849 23.447636 -1.958776 0.000000 0.000000 0.000000 
0.031971 0.953963 0.005726 -12.098557 -9.902892 14.041813 13.870251 0.515600 -14.226879 -2.295840 0.364694 -5.154586 -2.195864 -0.080884 13.397161 0.000000 0.000000 0.000000 1.449717 0.206819 -3.060167 4.250537 -0.304886 0.576362 -3.421712 -13.434384 15.621234 0.000000 0.000000 0.000000 -5.594632 0.414233 6.890792 -4.952627 2.416886 1.332144 -2.413036 11.287411 5.541042 1.549353 0.743660 -14.932316 0.000000 0.000000 0.000000 -24.787101 -21.160313 8.222349 -19.572065 -17.684984 0.273742 14.843453 -19.843508 -1.915026 0.000000 0.000000 0.000000 29.460602 16.211193 11.487158 46.964925 13.593314 -0.422304 -17.843823 26.279886 -2.447221 0.000000 0.000000 0.000000 
0.036463 0.954811 0.003801 -12.576648 -12.626210 14.109710 14.135291 0.705486 -13.805660 -2.656383 0.401123 -4.630854 -0.921745 1.645708 13.405141 0.000000 0.000000 0.000000 1.288431 0.171570 -2.806176 5.590400 -0.361624 1.137470 -3.851808 -14.383985 15.542866 0.000000 0.000000 0.000000 -5.757361 0.474219 7.696053 -4.927508 2.396062 0.824439 -2.801122 11.233460 5.470898 2.329547 0.071974 -14.334151 0.000000 0.000000 0.000000 -23.391386 -22.137042 9.308142 -19.523178 -17.722315 0.133884 15.679131 -19.611643 -1.998861 0.000000 0.000000 0.000000 29.308727 16.462029 10.986337 47.396287 13.596824 -0.198049 -17.133423 28.849092 -2.643536 0.000000 0.000000 0.000000 
0.040078 0.955158 0.000500 -13.018583 -14.922334 14.970402 14.320699 0.842947 -13.366044 -2.733996 0.445302 -6.011863 0.133301 3.178890 14.154656 0.000000 0.000000 0.000000 1.354007 0.211016 -3.335049 6.072959 -0.348460 1.131931 -3.970701 -15.145660 16.919378 0.000000 0.000000 0.000000 -5.690160 0.499133 7.710162 -4.761160 2.325228 0.683342 -3.178905 11.660875 5.305296 2.624308 -0.159962 -14.502832 0.000000 0.000000 0.000000 -22.569681 -22.595044 9.811688 -18.758978 -18.886777 0.142241 15.995121 -19.703555 -2.034986 0.000000 0.000000 0.000000 27.844526 16.782721 10.616145 49.108951 14.399690 0.358153 -18.020090 30.314569 -3.045720 0.000000 0.000000 0.000000 
0.043466 0.955533 -0.004008 -13.531270 -17.834876 15.430016 14.268854 1.068799 -13.660007 -2.374647 0.404277 -5.028998 1.562168 5.069798 14.237811 0.000000 0.000000 0.000000 1.276491 0.260508 -3.889492 6.682121 -0.331156 2.169764 -4.036806 -15.562716 16.924449 0.000000 0.000000 0.000000 -5.820238 0.553189 7.919007 -4.338754 2.070429 -0.222115 -3.224588 11.982058 5.674243 3.729534 -0.900279 -15.064873 0.000000 0.000000 0.000000 -22.357435 -22.167829 10.049722 -18.022256 -19.479867 0.021492 16.026366 -20.608532 -2.096837 0.000000 0.000000 0.000000 27.183235 17.023456 10.102399 49.070616 14.519714 0.550227 -16.863703 30.625231 -2.890166 0.000000 0.000000 0.000000 
0.046989 0.955445 -0.009549 -13.759519 -20.088623 16.079455 14.409176 1.238758 -13.450647 -2.752978 0.473486 -5.956265 2.590108 6.466938 15.048349 0.000000 0.000000 0.000000 1.054930 0.315267 -4.404062 6.619163 -0.278032 2.441458 -4.580024 -16.785705 17.755016 0.000000 0.000000 0.000000 -5.730301 0.570900 7.986046 -4.022925 1.909826 -0.512461 -3.304405 12.050360 5.978849 3.975230 -1.139102 -15.363871 0.000000 0.000000 0.000000 -21.860628 -22.753897 10.822923 -18.329533 -20.042743 -0.018027 15.908011 -22.517477 -2.239114 0.000000 0.000000 0.000000 26.290450 17.635595 9.870872 49.443956 14.855001 0.836272 -17.340666 30.438181 -3.071946 0.000000 0.000000 0.000000 
0.050849 0.955666 -0.015967 -14.187578 -22.982649 16.421091 14.437895 1.517485 -13.865625 -2.739332 0.463679 -4.764519 3.983784 8.264569 15.373667 0.000000 0.000000 0.000000 1.122393 0.337210 -4.759884 6.534497 -0.212751 2.902532 -5.207397 -18.117076 18.623510 0.000000 0.000000 0.000000 -5.743488 0.597561 7.946358 -3.970601 1.876447 -0.751162 -3.262805 11.996477 6.267839 4.686904 -1.678405 -15.934698 0.000000 0.000000 0.000000 -21.949321 -22.724993 11.443410 -18.605791 -20.809882 -0.051451 15.644848 -24.550274 -2.343482 0.000000 0.000000 0.000000 25.730740 18.921837 9.915487 48.778469 14.299476 0.772420 -16.987145 30.002218 -3.076700 0.000000 0.000000 0.000000 
